M48
METRIC,LZ,000.000
;FILE_FORMAT=3:3
;TYPE=PLATED
;Layer: PTH_Through
;EasyEDA v6.5.9, 2022-07-19 10:17:32
;949b56ed96714d3c9a1e36b78244d617,84c7e2b185e6486294edc9ff802fc075,10
;Gerber Generator version 0.2
;Holesize 1 = 0.306 mm
T01C0.306
;Holesize 2 = 0.915 mm
T02C0.915
;Holesize 3 = 1.101 mm
T03C1.101
;Holesize 4 = 1.200 mm
T04C1.200
;Holesize 5 = 1.501 mm
T05C1.501
;Holesize 6 = 1.650 mm
T06C1.650
;Holesize 7 = 1.901 mm
T07C1.901
%
G05
G90
T01
X055499Y124968
X053467Y122936
X057023Y154595
X046736Y111252
X070485Y111125
X077978Y124968
X075946Y122809
X093980Y111125
X114300Y111125
X100203Y125222
X098806Y122301
X078613Y154686
X121031Y125222
X119253Y122301
X101473Y154686
X122555Y154686
X139573Y111125
X144399Y122301
X145669Y125222
X148082Y154686
X168783Y154686
X167513Y125095
X165481Y122301
X160401Y111252
X186690Y111252
X194691Y154686
X193548Y124968
X191516Y122301
X212725Y122174
X214249Y125095
X207772Y111252
X215773Y154686
X152400Y066040
X050927Y066040
T02
X057912Y157729
X050800Y159509
X054864Y159509
X052832Y159509
X053848Y157729
X051816Y157729
X056896Y159509
X055880Y157729
X058925Y152911
X061217Y152911
X047495Y152911
X049787Y152911
X079629Y157729
X072517Y159509
X076581Y159509
X074549Y159509
X075565Y157729
X073533Y157729
X078613Y159509
X077597Y157729
X080642Y152911
X082934Y152911
X069212Y152911
X071504Y152911
X102362Y157729
X095250Y159509
X099314Y159509
X097282Y159509
X098298Y157729
X096266Y157729
X101346Y159509
X100330Y157729
X103375Y152911
X105667Y152911
X091945Y152911
X094237Y152911
X123444Y157729
X116332Y159509
X120396Y159509
X118364Y159509
X119380Y157729
X117348Y157729
X122428Y159509
X121412Y157729
X124457Y152911
X126749Y152911
X113027Y152911
X115319Y152911
X148971Y157602
X141859Y159382
X145923Y159382
X143891Y159382
X144907Y157602
X142875Y157602
X147955Y159382
X146939Y157602
X149984Y152784
X152276Y152784
X138554Y152784
X140846Y152784
X169672Y157602
X162560Y159382
X166624Y159382
X164592Y159382
X165608Y157602
X163576Y157602
X168656Y159382
X167640Y157602
X170685Y152784
X172977Y152784
X159255Y152784
X161547Y152784
X195707Y157602
X188595Y159382
X192659Y159382
X190627Y159382
X191643Y157602
X189611Y157602
X194691Y159382
X193675Y157602
X196720Y152784
X199012Y152784
X185290Y152784
X187582Y152784
X216662Y157729
X209550Y159509
X213614Y159509
X211582Y159509
X212598Y157729
X210566Y157729
X215646Y159509
X214630Y157729
X217675Y152911
X219967Y152911
X206245Y152911
X208537Y152911
X152400Y064389
T03
X130683Y068834
X133223Y068834
X135763Y068834
X138303Y068834
X162560Y075311
X162560Y077851
X162560Y080391
X162560Y082931
T04
X125476Y085217
X128016Y085217
X130556Y085217
X133096Y085217
X135636Y085217
X138176Y085217
X140716Y085217
X143256Y085217
T05
X014732Y115316
T06
X029838Y149909
X029838Y146509
X039758Y146509
X039758Y149909
X029838Y135685
X029838Y132285
X039758Y132285
X039758Y135685
X235592Y131523
X235592Y134923
X225672Y134923
X225672Y131523
X235592Y146382
X235592Y149782
X225672Y149782
X225672Y146382
X029584Y101268
X029584Y097868
X039504Y097868
X039504Y101268
T07
X046226Y158489
X062486Y158489
X067943Y158489
X084203Y158489
X090676Y158489
X106936Y158489
X111758Y158489
X128018Y158489
X137285Y158362
X153545Y158362
X157986Y158362
X174246Y158362
X184021Y158362
X200281Y158362
X204976Y158489
X221236Y158489
X016256Y148082
X016256Y155702
X016129Y126111
X016129Y133731
X249301Y133350
X249301Y125730
X249301Y156083
X249301Y148463
M30
