M48
METRIC,LZ,000.000
;FILE_FORMAT=3:3
;TYPE=NON_PLATED
;Layer: NPTH_Through
;EasyEDA v6.5.9, 2022-07-19 10:17:32
;949b56ed96714d3c9a1e36b78244d617,84c7e2b185e6486294edc9ff802fc075,10
;Gerber Generator version 0.2
;Holesize 1 = 3.250 mm
T01C3.250
;Holesize 2 = 6.000 mm
T02C6.000
%
G05
G90
T01
X048006Y162049
X060706Y162049
X069723Y162049
X082423Y162049
X092456Y162049
X105156Y162049
X113538Y162049
X126238Y162049
X139065Y161922
X151765Y161922
X159766Y161922
X172466Y161922
X185801Y161922
X198501Y161922
X206756Y162049
X219456Y162049
T02
X028321Y161798
X012954Y062230
X238125Y161671
X251587Y061722
M30
