G04 Layer: TopPasteMaskLayer*
G04 EasyEDA v6.5.9, 2022-07-19 10:17:32*
G04 949b56ed96714d3c9a1e36b78244d617,84c7e2b185e6486294edc9ff802fc075,10*
G04 Gerber Generator version 0.2*
G04 Scale: 100 percent, Rotated: No, Reflected: No *
G04 Dimensions in millimeters *
G04 leading zeros omitted , absolute positions ,4 integer and 5 decimal *
%FSLAX45Y45*%
%MOMM*%

%ADD10C,0.5740*%
%ADD11R,1.0500X2.4650*%

%LPD*%
G36*
X4841900Y12892582D02*
G01*
X4836922Y12887604D01*
X4836922Y12842595D01*
X4841900Y12837617D01*
X4889906Y12837617D01*
X4896916Y12842595D01*
X4896916Y12887604D01*
X4889906Y12892582D01*
G37*
G36*
X4939893Y12892582D02*
G01*
X4932883Y12887604D01*
X4932883Y12842595D01*
X4939893Y12837617D01*
X4987899Y12837617D01*
X4992878Y12842595D01*
X4992878Y12887604D01*
X4987899Y12892582D01*
G37*
G36*
X7026300Y12460782D02*
G01*
X7021322Y12455804D01*
X7021322Y12410795D01*
X7026300Y12405817D01*
X7074306Y12405817D01*
X7081316Y12410795D01*
X7081316Y12455804D01*
X7074306Y12460782D01*
G37*
G36*
X7124293Y12460782D02*
G01*
X7117283Y12455804D01*
X7117283Y12410795D01*
X7124293Y12405817D01*
X7172299Y12405817D01*
X7177278Y12410795D01*
X7177278Y12455804D01*
X7172299Y12460782D01*
G37*
G36*
X9286900Y12473482D02*
G01*
X9281922Y12468504D01*
X9281922Y12423495D01*
X9286900Y12418517D01*
X9334906Y12418517D01*
X9341916Y12423495D01*
X9341916Y12468504D01*
X9334906Y12473482D01*
G37*
G36*
X9384893Y12473482D02*
G01*
X9377883Y12468504D01*
X9377883Y12423495D01*
X9384893Y12418517D01*
X9432899Y12418517D01*
X9437878Y12423495D01*
X9437878Y12468504D01*
X9432899Y12473482D01*
G37*
G36*
X11395100Y12473482D02*
G01*
X11390122Y12468504D01*
X11390122Y12423495D01*
X11395100Y12418517D01*
X11443106Y12418517D01*
X11450116Y12423495D01*
X11450116Y12468504D01*
X11443106Y12473482D01*
G37*
G36*
X11493093Y12473482D02*
G01*
X11486083Y12468504D01*
X11486083Y12423495D01*
X11493093Y12418517D01*
X11541099Y12418517D01*
X11546078Y12423495D01*
X11546078Y12468504D01*
X11541099Y12473482D01*
G37*
G36*
X13947800Y12460782D02*
G01*
X13942822Y12455804D01*
X13942822Y12410795D01*
X13947800Y12405817D01*
X13995806Y12405817D01*
X14002816Y12410795D01*
X14002816Y12455804D01*
X13995806Y12460782D01*
G37*
G36*
X14045793Y12460782D02*
G01*
X14038783Y12455804D01*
X14038783Y12410795D01*
X14045793Y12405817D01*
X14093799Y12405817D01*
X14098778Y12410795D01*
X14098778Y12455804D01*
X14093799Y12460782D01*
G37*
G36*
X16017900Y12460782D02*
G01*
X16012922Y12455804D01*
X16012922Y12410795D01*
X16017900Y12405817D01*
X16065906Y12405817D01*
X16072916Y12410795D01*
X16072916Y12455804D01*
X16065906Y12460782D01*
G37*
G36*
X16115893Y12460782D02*
G01*
X16108883Y12455804D01*
X16108883Y12410795D01*
X16115893Y12405817D01*
X16163899Y12405817D01*
X16168878Y12410795D01*
X16168878Y12455804D01*
X16163899Y12460782D01*
G37*
G36*
X18621400Y12854482D02*
G01*
X18616422Y12849504D01*
X18616422Y12804495D01*
X18621400Y12799517D01*
X18669406Y12799517D01*
X18676416Y12804495D01*
X18676416Y12849504D01*
X18669406Y12854482D01*
G37*
G36*
X18719393Y12854482D02*
G01*
X18712383Y12849504D01*
X18712383Y12804495D01*
X18719393Y12799517D01*
X18767399Y12799517D01*
X18772378Y12804495D01*
X18772378Y12849504D01*
X18767399Y12854482D01*
G37*
G36*
X20716900Y12854482D02*
G01*
X20711922Y12849504D01*
X20711922Y12804495D01*
X20716900Y12799517D01*
X20764906Y12799517D01*
X20771916Y12804495D01*
X20771916Y12849504D01*
X20764906Y12854482D01*
G37*
G36*
X20814893Y12854482D02*
G01*
X20807883Y12849504D01*
X20807883Y12804495D01*
X20814893Y12799517D01*
X20862899Y12799517D01*
X20867878Y12804495D01*
X20867878Y12849504D01*
X20862899Y12854482D01*
G37*
G36*
X1158290Y11310518D02*
G01*
X1153312Y11305489D01*
X1153312Y11177524D01*
X1158290Y11172494D01*
X1273302Y11172494D01*
X1278280Y11177524D01*
X1277823Y11219484D01*
X1233779Y11219484D01*
X1233779Y11264493D01*
X1278788Y11264493D01*
X1278280Y11305489D01*
X1273302Y11310518D01*
G37*
G36*
X1373276Y11310518D02*
G01*
X1368298Y11305489D01*
X1368806Y11264493D01*
X1412798Y11264493D01*
X1412798Y11219484D01*
X1368298Y11219484D01*
X1368298Y11177524D01*
X1373276Y11172494D01*
X1488287Y11172494D01*
X1493316Y11177524D01*
X1493316Y11305489D01*
X1488287Y11310518D01*
G37*
G36*
X2362606Y10194188D02*
G01*
X2321610Y10193680D01*
X2316581Y10188702D01*
X2316581Y10073690D01*
X2321610Y10068712D01*
X2449576Y10068712D01*
X2454605Y10073690D01*
X2454605Y10188702D01*
X2449576Y10193680D01*
X2407615Y10193223D01*
X2407615Y10149179D01*
X2362606Y10149179D01*
G37*
G36*
X2321610Y10408716D02*
G01*
X2316581Y10403687D01*
X2316581Y10288676D01*
X2321610Y10283698D01*
X2362606Y10284206D01*
X2362606Y10328198D01*
X2407615Y10328198D01*
X2407615Y10283698D01*
X2449576Y10283698D01*
X2454605Y10288676D01*
X2454605Y10403687D01*
X2449576Y10408716D01*
G37*
G36*
X4939893Y12498882D02*
G01*
X4934915Y12493904D01*
X4934915Y12448895D01*
X4939893Y12443917D01*
X4992878Y12443917D01*
X4997907Y12448895D01*
X4997907Y12493904D01*
X4992878Y12498882D01*
G37*
G36*
X4836922Y12498882D02*
G01*
X4831892Y12493904D01*
X4831892Y12448895D01*
X4836922Y12443917D01*
X4889906Y12443917D01*
X4894884Y12448895D01*
X4894884Y12493904D01*
X4889906Y12498882D01*
G37*
G36*
X7124293Y12867182D02*
G01*
X7119315Y12862204D01*
X7119315Y12817195D01*
X7124293Y12812217D01*
X7177278Y12812217D01*
X7182307Y12817195D01*
X7182307Y12862204D01*
X7177278Y12867182D01*
G37*
G36*
X7021322Y12867182D02*
G01*
X7016292Y12862204D01*
X7016292Y12817195D01*
X7021322Y12812217D01*
X7074306Y12812217D01*
X7079284Y12817195D01*
X7079284Y12862204D01*
X7074306Y12867182D01*
G37*
G36*
X11493093Y12867182D02*
G01*
X11488115Y12862204D01*
X11488115Y12817195D01*
X11493093Y12812217D01*
X11546078Y12812217D01*
X11551107Y12817195D01*
X11551107Y12862204D01*
X11546078Y12867182D01*
G37*
G36*
X11390122Y12867182D02*
G01*
X11385092Y12862204D01*
X11385092Y12817195D01*
X11390122Y12812217D01*
X11443106Y12812217D01*
X11448084Y12817195D01*
X11448084Y12862204D01*
X11443106Y12867182D01*
G37*
G36*
X9384893Y12867182D02*
G01*
X9379915Y12862204D01*
X9379915Y12817195D01*
X9384893Y12812217D01*
X9437878Y12812217D01*
X9442907Y12817195D01*
X9442907Y12862204D01*
X9437878Y12867182D01*
G37*
G36*
X9281922Y12867182D02*
G01*
X9276892Y12862204D01*
X9276892Y12817195D01*
X9281922Y12812217D01*
X9334906Y12812217D01*
X9339884Y12817195D01*
X9339884Y12862204D01*
X9334906Y12867182D01*
G37*
G36*
X18719393Y12460782D02*
G01*
X18714415Y12455804D01*
X18714415Y12410795D01*
X18719393Y12405817D01*
X18772378Y12405817D01*
X18777407Y12410795D01*
X18777407Y12455804D01*
X18772378Y12460782D01*
G37*
G36*
X18616422Y12460782D02*
G01*
X18611392Y12455804D01*
X18611392Y12410795D01*
X18616422Y12405817D01*
X18669406Y12405817D01*
X18674384Y12410795D01*
X18674384Y12455804D01*
X18669406Y12460782D01*
G37*
G36*
X20814893Y12460782D02*
G01*
X20809915Y12455804D01*
X20809915Y12410795D01*
X20814893Y12405817D01*
X20867878Y12405817D01*
X20872907Y12410795D01*
X20872907Y12455804D01*
X20867878Y12460782D01*
G37*
G36*
X20711922Y12460782D02*
G01*
X20706892Y12455804D01*
X20706892Y12410795D01*
X20711922Y12405817D01*
X20764906Y12405817D01*
X20769884Y12410795D01*
X20769884Y12455804D01*
X20764906Y12460782D01*
G37*
G36*
X16115893Y12854482D02*
G01*
X16110915Y12849504D01*
X16110915Y12804495D01*
X16115893Y12799517D01*
X16168878Y12799517D01*
X16173907Y12804495D01*
X16173907Y12849504D01*
X16168878Y12854482D01*
G37*
G36*
X16012922Y12854482D02*
G01*
X16007892Y12849504D01*
X16007892Y12804495D01*
X16012922Y12799517D01*
X16065906Y12799517D01*
X16070884Y12804495D01*
X16070884Y12849504D01*
X16065906Y12854482D01*
G37*
G36*
X14045793Y12867182D02*
G01*
X14040815Y12862204D01*
X14040815Y12817195D01*
X14045793Y12812217D01*
X14098778Y12812217D01*
X14103807Y12817195D01*
X14103807Y12862204D01*
X14098778Y12867182D01*
G37*
G36*
X13942822Y12867182D02*
G01*
X13937792Y12862204D01*
X13937792Y12817195D01*
X13942822Y12812217D01*
X13995806Y12812217D01*
X14000784Y12817195D01*
X14000784Y12862204D01*
X13995806Y12867182D01*
G37*
G36*
X5580126Y10428325D02*
G01*
X5576112Y10424312D01*
X5576112Y10378287D01*
X5580126Y10374274D01*
X5630164Y10374274D01*
X5634177Y10378287D01*
X5634177Y10424312D01*
X5630164Y10428325D01*
G37*
G36*
X5495036Y10428325D02*
G01*
X5491022Y10424312D01*
X5491022Y10378287D01*
X5495036Y10374274D01*
X5545074Y10374274D01*
X5549087Y10378287D01*
X5549087Y10424312D01*
X5545074Y10428325D01*
G37*
G36*
X5453126Y10669625D02*
G01*
X5449112Y10665612D01*
X5449112Y10619587D01*
X5453126Y10615574D01*
X5503164Y10615574D01*
X5507177Y10619587D01*
X5507177Y10665612D01*
X5503164Y10669625D01*
G37*
G36*
X5368036Y10669625D02*
G01*
X5364022Y10665612D01*
X5364022Y10619587D01*
X5368036Y10615574D01*
X5418074Y10615574D01*
X5422087Y10619587D01*
X5422087Y10665612D01*
X5418074Y10669625D01*
G37*
G36*
X5326126Y10910925D02*
G01*
X5322112Y10906912D01*
X5322112Y10860887D01*
X5326126Y10856874D01*
X5376164Y10856874D01*
X5380177Y10860887D01*
X5380177Y10906912D01*
X5376164Y10910925D01*
G37*
G36*
X5241036Y10910925D02*
G01*
X5237022Y10906912D01*
X5237022Y10860887D01*
X5241036Y10856874D01*
X5291074Y10856874D01*
X5295087Y10860887D01*
X5295087Y10906912D01*
X5291074Y10910925D01*
G37*
G36*
X5186426Y11126825D02*
G01*
X5182412Y11122812D01*
X5182412Y11076787D01*
X5186426Y11072774D01*
X5236464Y11072774D01*
X5240477Y11076787D01*
X5240477Y11122812D01*
X5236464Y11126825D01*
G37*
G36*
X5101336Y11126825D02*
G01*
X5097322Y11122812D01*
X5097322Y11076787D01*
X5101336Y11072774D01*
X5151374Y11072774D01*
X5155387Y11076787D01*
X5155387Y11122812D01*
X5151374Y11126825D01*
G37*
G36*
X5228336Y12676225D02*
G01*
X5224322Y12672212D01*
X5224322Y12626187D01*
X5228336Y12622174D01*
X5278374Y12622174D01*
X5282387Y12626187D01*
X5282387Y12672212D01*
X5278374Y12676225D01*
G37*
G36*
X5313426Y12676225D02*
G01*
X5309412Y12672212D01*
X5309412Y12626187D01*
X5313426Y12622174D01*
X5363464Y12622174D01*
X5367477Y12626187D01*
X5367477Y12672212D01*
X5363464Y12676225D01*
G37*
G36*
X5605526Y12676225D02*
G01*
X5601512Y12672212D01*
X5601512Y12626187D01*
X5605526Y12622174D01*
X5655564Y12622174D01*
X5659577Y12626187D01*
X5659577Y12672212D01*
X5655564Y12676225D01*
G37*
G36*
X5520436Y12676225D02*
G01*
X5516422Y12672212D01*
X5516422Y12626187D01*
X5520436Y12622174D01*
X5570474Y12622174D01*
X5574487Y12626187D01*
X5574487Y12672212D01*
X5570474Y12676225D01*
G37*
G36*
X5368036Y12968325D02*
G01*
X5364022Y12964312D01*
X5364022Y12918287D01*
X5368036Y12914274D01*
X5418074Y12914274D01*
X5422087Y12918287D01*
X5422087Y12964312D01*
X5418074Y12968325D01*
G37*
G36*
X5453126Y12968325D02*
G01*
X5449112Y12964312D01*
X5449112Y12918287D01*
X5453126Y12914274D01*
X5503164Y12914274D01*
X5507177Y12918287D01*
X5507177Y12964312D01*
X5503164Y12968325D01*
G37*
G36*
X7552436Y12968325D02*
G01*
X7548422Y12964312D01*
X7548422Y12918287D01*
X7552436Y12914274D01*
X7602474Y12914274D01*
X7606487Y12918287D01*
X7606487Y12964312D01*
X7602474Y12968325D01*
G37*
G36*
X7637525Y12968325D02*
G01*
X7633512Y12964312D01*
X7633512Y12918287D01*
X7637525Y12914274D01*
X7687564Y12914274D01*
X7691577Y12918287D01*
X7691577Y12964312D01*
X7687564Y12968325D01*
G37*
G36*
X7853425Y12663525D02*
G01*
X7849412Y12659512D01*
X7849412Y12613487D01*
X7853425Y12609474D01*
X7903464Y12609474D01*
X7907477Y12613487D01*
X7907477Y12659512D01*
X7903464Y12663525D01*
G37*
G36*
X7768336Y12663525D02*
G01*
X7764322Y12659512D01*
X7764322Y12613487D01*
X7768336Y12609474D01*
X7818374Y12609474D01*
X7822387Y12613487D01*
X7822387Y12659512D01*
X7818374Y12663525D01*
G37*
G36*
X7438136Y12663525D02*
G01*
X7434122Y12659512D01*
X7434122Y12613487D01*
X7438136Y12609474D01*
X7488174Y12609474D01*
X7492187Y12613487D01*
X7492187Y12659512D01*
X7488174Y12663525D01*
G37*
G36*
X7523225Y12663525D02*
G01*
X7519212Y12659512D01*
X7519212Y12613487D01*
X7523225Y12609474D01*
X7573264Y12609474D01*
X7577277Y12613487D01*
X7577277Y12659512D01*
X7573264Y12663525D01*
G37*
G36*
X7434325Y11139525D02*
G01*
X7430312Y11135512D01*
X7430312Y11089487D01*
X7434325Y11085474D01*
X7484364Y11085474D01*
X7488377Y11089487D01*
X7488377Y11135512D01*
X7484364Y11139525D01*
G37*
G36*
X7349236Y11139525D02*
G01*
X7345222Y11135512D01*
X7345222Y11089487D01*
X7349236Y11085474D01*
X7399274Y11085474D01*
X7403287Y11089487D01*
X7403287Y11135512D01*
X7399274Y11139525D01*
G37*
G36*
X7561325Y10885525D02*
G01*
X7557312Y10881512D01*
X7557312Y10835487D01*
X7561325Y10831474D01*
X7611364Y10831474D01*
X7615377Y10835487D01*
X7615377Y10881512D01*
X7611364Y10885525D01*
G37*
G36*
X7476236Y10885525D02*
G01*
X7472222Y10881512D01*
X7472222Y10835487D01*
X7476236Y10831474D01*
X7526274Y10831474D01*
X7530287Y10835487D01*
X7530287Y10881512D01*
X7526274Y10885525D01*
G37*
G36*
X7701025Y10644225D02*
G01*
X7697012Y10640212D01*
X7697012Y10594187D01*
X7701025Y10590174D01*
X7751064Y10590174D01*
X7755077Y10594187D01*
X7755077Y10640212D01*
X7751064Y10644225D01*
G37*
G36*
X7615936Y10644225D02*
G01*
X7611922Y10640212D01*
X7611922Y10594187D01*
X7615936Y10590174D01*
X7665974Y10590174D01*
X7669987Y10594187D01*
X7669987Y10640212D01*
X7665974Y10644225D01*
G37*
G36*
X7828025Y10415625D02*
G01*
X7824012Y10411612D01*
X7824012Y10365587D01*
X7828025Y10361574D01*
X7878064Y10361574D01*
X7882077Y10365587D01*
X7882077Y10411612D01*
X7878064Y10415625D01*
G37*
G36*
X7742936Y10415625D02*
G01*
X7738922Y10411612D01*
X7738922Y10365587D01*
X7742936Y10361574D01*
X7792974Y10361574D01*
X7796987Y10365587D01*
X7796987Y10411612D01*
X7792974Y10415625D01*
G37*
G36*
X12146026Y10466425D02*
G01*
X12142012Y10462412D01*
X12142012Y10416387D01*
X12146026Y10412374D01*
X12196064Y10412374D01*
X12200077Y10416387D01*
X12200077Y10462412D01*
X12196064Y10466425D01*
G37*
G36*
X12060936Y10466425D02*
G01*
X12056922Y10462412D01*
X12056922Y10416387D01*
X12060936Y10412374D01*
X12110974Y10412374D01*
X12114987Y10416387D01*
X12114987Y10462412D01*
X12110974Y10466425D01*
G37*
G36*
X12031726Y10682325D02*
G01*
X12027712Y10678312D01*
X12027712Y10632287D01*
X12031726Y10628274D01*
X12081764Y10628274D01*
X12085777Y10632287D01*
X12085777Y10678312D01*
X12081764Y10682325D01*
G37*
G36*
X11946636Y10682325D02*
G01*
X11942622Y10678312D01*
X11942622Y10632287D01*
X11946636Y10628274D01*
X11996674Y10628274D01*
X12000687Y10632287D01*
X12000687Y10678312D01*
X11996674Y10682325D01*
G37*
G36*
X11904726Y10910925D02*
G01*
X11900712Y10906912D01*
X11900712Y10860887D01*
X11904726Y10856874D01*
X11954764Y10856874D01*
X11958777Y10860887D01*
X11958777Y10906912D01*
X11954764Y10910925D01*
G37*
G36*
X11819636Y10910925D02*
G01*
X11815622Y10906912D01*
X11815622Y10860887D01*
X11819636Y10856874D01*
X11869674Y10856874D01*
X11873687Y10860887D01*
X11873687Y10906912D01*
X11869674Y10910925D01*
G37*
G36*
X11765026Y11139525D02*
G01*
X11761012Y11135512D01*
X11761012Y11089487D01*
X11765026Y11085474D01*
X11815064Y11085474D01*
X11819077Y11089487D01*
X11819077Y11135512D01*
X11815064Y11139525D01*
G37*
G36*
X11679936Y11139525D02*
G01*
X11675922Y11135512D01*
X11675922Y11089487D01*
X11679936Y11085474D01*
X11729974Y11085474D01*
X11733987Y11089487D01*
X11733987Y11135512D01*
X11729974Y11139525D01*
G37*
G36*
X11794236Y12663525D02*
G01*
X11790222Y12659512D01*
X11790222Y12613487D01*
X11794236Y12609474D01*
X11844274Y12609474D01*
X11848287Y12613487D01*
X11848287Y12659512D01*
X11844274Y12663525D01*
G37*
G36*
X11879326Y12663525D02*
G01*
X11875312Y12659512D01*
X11875312Y12613487D01*
X11879326Y12609474D01*
X11929364Y12609474D01*
X11933377Y12613487D01*
X11933377Y12659512D01*
X11929364Y12663525D01*
G37*
G36*
X12171426Y12663525D02*
G01*
X12167412Y12659512D01*
X12167412Y12613487D01*
X12171426Y12609474D01*
X12221464Y12609474D01*
X12225477Y12613487D01*
X12225477Y12659512D01*
X12221464Y12663525D01*
G37*
G36*
X12086336Y12663525D02*
G01*
X12082322Y12659512D01*
X12082322Y12613487D01*
X12086336Y12609474D01*
X12136374Y12609474D01*
X12140387Y12613487D01*
X12140387Y12659512D01*
X12136374Y12663525D01*
G37*
G36*
X11908536Y12968325D02*
G01*
X11904522Y12964312D01*
X11904522Y12918287D01*
X11908536Y12914274D01*
X11958574Y12914274D01*
X11962587Y12918287D01*
X11962587Y12964312D01*
X11958574Y12968325D01*
G37*
G36*
X11993626Y12968325D02*
G01*
X11989612Y12964312D01*
X11989612Y12918287D01*
X11993626Y12914274D01*
X12043664Y12914274D01*
X12047677Y12918287D01*
X12047677Y12964312D01*
X12043664Y12968325D01*
G37*
G36*
X9825736Y12968325D02*
G01*
X9821722Y12964312D01*
X9821722Y12918287D01*
X9825736Y12914274D01*
X9875774Y12914274D01*
X9879787Y12918287D01*
X9879787Y12964312D01*
X9875774Y12968325D01*
G37*
G36*
X9910826Y12968325D02*
G01*
X9906812Y12964312D01*
X9906812Y12918287D01*
X9910826Y12914274D01*
X9960864Y12914274D01*
X9964877Y12918287D01*
X9964877Y12964312D01*
X9960864Y12968325D01*
G37*
G36*
X10088626Y12663525D02*
G01*
X10084612Y12659512D01*
X10084612Y12613487D01*
X10088626Y12609474D01*
X10138664Y12609474D01*
X10142677Y12613487D01*
X10142677Y12659512D01*
X10138664Y12663525D01*
G37*
G36*
X10003536Y12663525D02*
G01*
X9999522Y12659512D01*
X9999522Y12613487D01*
X10003536Y12609474D01*
X10053574Y12609474D01*
X10057587Y12613487D01*
X10057587Y12659512D01*
X10053574Y12663525D01*
G37*
G36*
X9698736Y12663525D02*
G01*
X9694722Y12659512D01*
X9694722Y12613487D01*
X9698736Y12609474D01*
X9748774Y12609474D01*
X9752787Y12613487D01*
X9752787Y12659512D01*
X9748774Y12663525D01*
G37*
G36*
X9783826Y12663525D02*
G01*
X9779812Y12659512D01*
X9779812Y12613487D01*
X9783826Y12609474D01*
X9833864Y12609474D01*
X9837877Y12613487D01*
X9837877Y12659512D01*
X9833864Y12663525D01*
G37*
G36*
X9733026Y11139525D02*
G01*
X9729012Y11135512D01*
X9729012Y11089487D01*
X9733026Y11085474D01*
X9783064Y11085474D01*
X9787077Y11089487D01*
X9787077Y11135512D01*
X9783064Y11139525D01*
G37*
G36*
X9647936Y11139525D02*
G01*
X9643922Y11135512D01*
X9643922Y11089487D01*
X9647936Y11085474D01*
X9697974Y11085474D01*
X9701987Y11089487D01*
X9701987Y11135512D01*
X9697974Y11139525D01*
G37*
G36*
X9860026Y10898225D02*
G01*
X9856012Y10894212D01*
X9856012Y10848187D01*
X9860026Y10844174D01*
X9910064Y10844174D01*
X9914077Y10848187D01*
X9914077Y10894212D01*
X9910064Y10898225D01*
G37*
G36*
X9774936Y10898225D02*
G01*
X9770922Y10894212D01*
X9770922Y10848187D01*
X9774936Y10844174D01*
X9824974Y10844174D01*
X9828987Y10848187D01*
X9828987Y10894212D01*
X9824974Y10898225D01*
G37*
G36*
X9987026Y10656925D02*
G01*
X9983012Y10652912D01*
X9983012Y10606887D01*
X9987026Y10602874D01*
X10037064Y10602874D01*
X10041077Y10606887D01*
X10041077Y10652912D01*
X10037064Y10656925D01*
G37*
G36*
X9901936Y10656925D02*
G01*
X9897922Y10652912D01*
X9897922Y10606887D01*
X9901936Y10602874D01*
X9951974Y10602874D01*
X9955987Y10606887D01*
X9955987Y10652912D01*
X9951974Y10656925D01*
G37*
G36*
X10114026Y10453725D02*
G01*
X10110012Y10449712D01*
X10110012Y10403687D01*
X10114026Y10399674D01*
X10164064Y10399674D01*
X10168077Y10403687D01*
X10168077Y10449712D01*
X10164064Y10453725D01*
G37*
G36*
X10028936Y10453725D02*
G01*
X10024922Y10449712D01*
X10024922Y10403687D01*
X10028936Y10399674D01*
X10078974Y10399674D01*
X10082987Y10403687D01*
X10082987Y10449712D01*
X10078974Y10453725D01*
G37*
G36*
X19385026Y10466425D02*
G01*
X19381012Y10462412D01*
X19381012Y10416387D01*
X19385026Y10412374D01*
X19435064Y10412374D01*
X19439077Y10416387D01*
X19439077Y10462412D01*
X19435064Y10466425D01*
G37*
G36*
X19299936Y10466425D02*
G01*
X19295922Y10462412D01*
X19295922Y10416387D01*
X19299936Y10412374D01*
X19349974Y10412374D01*
X19353987Y10416387D01*
X19353987Y10462412D01*
X19349974Y10466425D01*
G37*
G36*
X19258026Y10695025D02*
G01*
X19254012Y10691012D01*
X19254012Y10644987D01*
X19258026Y10640974D01*
X19308064Y10640974D01*
X19312077Y10644987D01*
X19312077Y10691012D01*
X19308064Y10695025D01*
G37*
G36*
X19172936Y10695025D02*
G01*
X19168922Y10691012D01*
X19168922Y10644987D01*
X19172936Y10640974D01*
X19222974Y10640974D01*
X19226987Y10644987D01*
X19226987Y10691012D01*
X19222974Y10695025D01*
G37*
G36*
X19131026Y10910925D02*
G01*
X19127012Y10906912D01*
X19127012Y10860887D01*
X19131026Y10856874D01*
X19181064Y10856874D01*
X19185077Y10860887D01*
X19185077Y10906912D01*
X19181064Y10910925D01*
G37*
G36*
X19045936Y10910925D02*
G01*
X19041922Y10906912D01*
X19041922Y10860887D01*
X19045936Y10856874D01*
X19095974Y10856874D01*
X19099987Y10860887D01*
X19099987Y10906912D01*
X19095974Y10910925D01*
G37*
G36*
X19004026Y11152225D02*
G01*
X19000012Y11148212D01*
X19000012Y11102187D01*
X19004026Y11098174D01*
X19054064Y11098174D01*
X19058077Y11102187D01*
X19058077Y11148212D01*
X19054064Y11152225D01*
G37*
G36*
X18918936Y11152225D02*
G01*
X18914922Y11148212D01*
X18914922Y11102187D01*
X18918936Y11098174D01*
X18968974Y11098174D01*
X18972987Y11102187D01*
X18972987Y11148212D01*
X18968974Y11152225D01*
G37*
G36*
X19045936Y12663525D02*
G01*
X19041922Y12659512D01*
X19041922Y12613487D01*
X19045936Y12609474D01*
X19095974Y12609474D01*
X19099987Y12613487D01*
X19099987Y12659512D01*
X19095974Y12663525D01*
G37*
G36*
X19131026Y12663525D02*
G01*
X19127012Y12659512D01*
X19127012Y12613487D01*
X19131026Y12609474D01*
X19181064Y12609474D01*
X19185077Y12613487D01*
X19185077Y12659512D01*
X19181064Y12663525D01*
G37*
G36*
X19410426Y12663525D02*
G01*
X19406412Y12659512D01*
X19406412Y12613487D01*
X19410426Y12609474D01*
X19460464Y12609474D01*
X19464477Y12613487D01*
X19464477Y12659512D01*
X19460464Y12663525D01*
G37*
G36*
X19325336Y12663525D02*
G01*
X19321322Y12659512D01*
X19321322Y12613487D01*
X19325336Y12609474D01*
X19375374Y12609474D01*
X19379387Y12613487D01*
X19379387Y12659512D01*
X19375374Y12663525D01*
G37*
G36*
X19147536Y12993725D02*
G01*
X19143522Y12989712D01*
X19143522Y12943687D01*
X19147536Y12939674D01*
X19197574Y12939674D01*
X19201587Y12943687D01*
X19201587Y12989712D01*
X19197574Y12993725D01*
G37*
G36*
X19232626Y12993725D02*
G01*
X19228612Y12989712D01*
X19228612Y12943687D01*
X19232626Y12939674D01*
X19282664Y12939674D01*
X19286677Y12943687D01*
X19286677Y12989712D01*
X19282664Y12993725D01*
G37*
G36*
X21255736Y13006425D02*
G01*
X21251722Y13002412D01*
X21251722Y12956387D01*
X21255736Y12952374D01*
X21305774Y12952374D01*
X21309787Y12956387D01*
X21309787Y13002412D01*
X21305774Y13006425D01*
G37*
G36*
X21340826Y13006425D02*
G01*
X21336812Y13002412D01*
X21336812Y12956387D01*
X21340826Y12952374D01*
X21390864Y12952374D01*
X21394877Y12956387D01*
X21394877Y13002412D01*
X21390864Y13006425D01*
G37*
G36*
X21480526Y12663525D02*
G01*
X21476512Y12659512D01*
X21476512Y12613487D01*
X21480526Y12609474D01*
X21530564Y12609474D01*
X21534577Y12613487D01*
X21534577Y12659512D01*
X21530564Y12663525D01*
G37*
G36*
X21395436Y12663525D02*
G01*
X21391422Y12659512D01*
X21391422Y12613487D01*
X21395436Y12609474D01*
X21445474Y12609474D01*
X21449487Y12613487D01*
X21449487Y12659512D01*
X21445474Y12663525D01*
G37*
G36*
X21103336Y12663525D02*
G01*
X21099322Y12659512D01*
X21099322Y12613487D01*
X21103336Y12609474D01*
X21153374Y12609474D01*
X21157387Y12613487D01*
X21157387Y12659512D01*
X21153374Y12663525D01*
G37*
G36*
X21188426Y12663525D02*
G01*
X21184412Y12659512D01*
X21184412Y12613487D01*
X21188426Y12609474D01*
X21238464Y12609474D01*
X21242477Y12613487D01*
X21242477Y12659512D01*
X21238464Y12663525D01*
G37*
G36*
X21112226Y11152225D02*
G01*
X21108212Y11148212D01*
X21108212Y11102187D01*
X21112226Y11098174D01*
X21162264Y11098174D01*
X21166277Y11102187D01*
X21166277Y11148212D01*
X21162264Y11152225D01*
G37*
G36*
X21027136Y11152225D02*
G01*
X21023122Y11148212D01*
X21023122Y11102187D01*
X21027136Y11098174D01*
X21077174Y11098174D01*
X21081187Y11102187D01*
X21081187Y11148212D01*
X21077174Y11152225D01*
G37*
G36*
X21239226Y10910925D02*
G01*
X21235212Y10906912D01*
X21235212Y10860887D01*
X21239226Y10856874D01*
X21289264Y10856874D01*
X21293277Y10860887D01*
X21293277Y10906912D01*
X21289264Y10910925D01*
G37*
G36*
X21154136Y10910925D02*
G01*
X21150122Y10906912D01*
X21150122Y10860887D01*
X21154136Y10856874D01*
X21204174Y10856874D01*
X21208187Y10860887D01*
X21208187Y10906912D01*
X21204174Y10910925D01*
G37*
G36*
X21366226Y10695025D02*
G01*
X21362212Y10691012D01*
X21362212Y10644987D01*
X21366226Y10640974D01*
X21416264Y10640974D01*
X21420277Y10644987D01*
X21420277Y10691012D01*
X21416264Y10695025D01*
G37*
G36*
X21281136Y10695025D02*
G01*
X21277122Y10691012D01*
X21277122Y10644987D01*
X21281136Y10640974D01*
X21331174Y10640974D01*
X21335187Y10644987D01*
X21335187Y10691012D01*
X21331174Y10695025D01*
G37*
G36*
X21493226Y10466425D02*
G01*
X21489212Y10462412D01*
X21489212Y10416387D01*
X21493226Y10412374D01*
X21543264Y10412374D01*
X21547277Y10416387D01*
X21547277Y10462412D01*
X21543264Y10466425D01*
G37*
G36*
X21408136Y10466425D02*
G01*
X21404122Y10462412D01*
X21404122Y10416387D01*
X21408136Y10412374D01*
X21458174Y10412374D01*
X21462187Y10416387D01*
X21462187Y10462412D01*
X21458174Y10466425D01*
G37*
G36*
X16768826Y10466425D02*
G01*
X16764812Y10462412D01*
X16764812Y10416387D01*
X16768826Y10412374D01*
X16818864Y10412374D01*
X16822877Y10416387D01*
X16822877Y10462412D01*
X16818864Y10466425D01*
G37*
G36*
X16683736Y10466425D02*
G01*
X16679722Y10462412D01*
X16679722Y10416387D01*
X16683736Y10412374D01*
X16733774Y10412374D01*
X16737787Y10416387D01*
X16737787Y10462412D01*
X16733774Y10466425D01*
G37*
G36*
X16641826Y10695025D02*
G01*
X16637812Y10691012D01*
X16637812Y10644987D01*
X16641826Y10640974D01*
X16691863Y10640974D01*
X16695877Y10644987D01*
X16695877Y10691012D01*
X16691863Y10695025D01*
G37*
G36*
X16556736Y10695025D02*
G01*
X16552722Y10691012D01*
X16552722Y10644987D01*
X16556736Y10640974D01*
X16606774Y10640974D01*
X16610787Y10644987D01*
X16610787Y10691012D01*
X16606774Y10695025D01*
G37*
G36*
X16514826Y10910925D02*
G01*
X16510812Y10906912D01*
X16510812Y10860887D01*
X16514826Y10856874D01*
X16564863Y10856874D01*
X16568877Y10860887D01*
X16568877Y10906912D01*
X16564863Y10910925D01*
G37*
G36*
X16429736Y10910925D02*
G01*
X16425722Y10906912D01*
X16425722Y10860887D01*
X16429736Y10856874D01*
X16479774Y10856874D01*
X16483787Y10860887D01*
X16483787Y10906912D01*
X16479774Y10910925D01*
G37*
G36*
X16400526Y11152225D02*
G01*
X16396512Y11148212D01*
X16396512Y11102187D01*
X16400526Y11098174D01*
X16450563Y11098174D01*
X16454577Y11102187D01*
X16454577Y11148212D01*
X16450563Y11152225D01*
G37*
G36*
X16315436Y11152225D02*
G01*
X16311422Y11148212D01*
X16311422Y11102187D01*
X16315436Y11098174D01*
X16365474Y11098174D01*
X16369487Y11102187D01*
X16369487Y11148212D01*
X16365474Y11152225D01*
G37*
G36*
X16429736Y12663525D02*
G01*
X16425722Y12659512D01*
X16425722Y12613487D01*
X16429736Y12609474D01*
X16479774Y12609474D01*
X16483787Y12613487D01*
X16483787Y12659512D01*
X16479774Y12663525D01*
G37*
G36*
X16514826Y12663525D02*
G01*
X16510812Y12659512D01*
X16510812Y12613487D01*
X16514826Y12609474D01*
X16564863Y12609474D01*
X16568877Y12613487D01*
X16568877Y12659512D01*
X16564863Y12663525D01*
G37*
G36*
X16819626Y12663525D02*
G01*
X16815612Y12659512D01*
X16815612Y12613487D01*
X16819626Y12609474D01*
X16869664Y12609474D01*
X16873677Y12613487D01*
X16873677Y12659512D01*
X16869664Y12663525D01*
G37*
G36*
X16734536Y12663525D02*
G01*
X16730522Y12659512D01*
X16730522Y12613487D01*
X16734536Y12609474D01*
X16784574Y12609474D01*
X16788587Y12613487D01*
X16788587Y12659512D01*
X16784574Y12663525D01*
G37*
G36*
X16556736Y12981025D02*
G01*
X16552722Y12977012D01*
X16552722Y12930987D01*
X16556736Y12926974D01*
X16606774Y12926974D01*
X16610787Y12930987D01*
X16610787Y12977012D01*
X16606774Y12981025D01*
G37*
G36*
X16641826Y12981025D02*
G01*
X16637812Y12977012D01*
X16637812Y12930987D01*
X16641826Y12926974D01*
X16691863Y12926974D01*
X16695877Y12930987D01*
X16695877Y12977012D01*
X16691863Y12981025D01*
G37*
G36*
X14461236Y12981025D02*
G01*
X14457222Y12977012D01*
X14457222Y12930987D01*
X14461236Y12926974D01*
X14511274Y12926974D01*
X14515287Y12930987D01*
X14515287Y12977012D01*
X14511274Y12981025D01*
G37*
G36*
X14546326Y12981025D02*
G01*
X14542312Y12977012D01*
X14542312Y12930987D01*
X14546326Y12926974D01*
X14596363Y12926974D01*
X14600377Y12930987D01*
X14600377Y12977012D01*
X14596363Y12981025D01*
G37*
G36*
X14635226Y12663525D02*
G01*
X14631212Y12659512D01*
X14631212Y12613487D01*
X14635226Y12609474D01*
X14685263Y12609474D01*
X14689277Y12613487D01*
X14689277Y12659512D01*
X14685263Y12663525D01*
G37*
G36*
X14550136Y12663525D02*
G01*
X14546122Y12659512D01*
X14546122Y12613487D01*
X14550136Y12609474D01*
X14600174Y12609474D01*
X14604187Y12613487D01*
X14604187Y12659512D01*
X14600174Y12663525D01*
G37*
G36*
X14308836Y12663525D02*
G01*
X14304822Y12659512D01*
X14304822Y12613487D01*
X14308836Y12609474D01*
X14358874Y12609474D01*
X14362887Y12613487D01*
X14362887Y12659512D01*
X14358874Y12663525D01*
G37*
G36*
X14393926Y12663525D02*
G01*
X14389912Y12659512D01*
X14389912Y12613487D01*
X14393926Y12609474D01*
X14443963Y12609474D01*
X14447977Y12613487D01*
X14447977Y12659512D01*
X14443963Y12663525D01*
G37*
G36*
X14292326Y11139525D02*
G01*
X14288312Y11135512D01*
X14288312Y11089487D01*
X14292326Y11085474D01*
X14342363Y11085474D01*
X14346377Y11089487D01*
X14346377Y11135512D01*
X14342363Y11139525D01*
G37*
G36*
X14207236Y11139525D02*
G01*
X14203222Y11135512D01*
X14203222Y11089487D01*
X14207236Y11085474D01*
X14257274Y11085474D01*
X14261287Y11089487D01*
X14261287Y11135512D01*
X14257274Y11139525D01*
G37*
G36*
X14419326Y10910925D02*
G01*
X14415312Y10906912D01*
X14415312Y10860887D01*
X14419326Y10856874D01*
X14469363Y10856874D01*
X14473377Y10860887D01*
X14473377Y10906912D01*
X14469363Y10910925D01*
G37*
G36*
X14334236Y10910925D02*
G01*
X14330222Y10906912D01*
X14330222Y10860887D01*
X14334236Y10856874D01*
X14384274Y10856874D01*
X14388287Y10860887D01*
X14388287Y10906912D01*
X14384274Y10910925D01*
G37*
G36*
X14546326Y10695025D02*
G01*
X14542312Y10691012D01*
X14542312Y10644987D01*
X14546326Y10640974D01*
X14596363Y10640974D01*
X14600377Y10644987D01*
X14600377Y10691012D01*
X14596363Y10695025D01*
G37*
G36*
X14461236Y10695025D02*
G01*
X14457222Y10691012D01*
X14457222Y10644987D01*
X14461236Y10640974D01*
X14511274Y10640974D01*
X14515287Y10644987D01*
X14515287Y10691012D01*
X14511274Y10695025D01*
G37*
G36*
X14673326Y10466425D02*
G01*
X14669312Y10462412D01*
X14669312Y10416387D01*
X14673326Y10412374D01*
X14723363Y10412374D01*
X14727377Y10416387D01*
X14727377Y10462412D01*
X14723363Y10466425D01*
G37*
G36*
X14588236Y10466425D02*
G01*
X14584222Y10462412D01*
X14584222Y10416387D01*
X14588236Y10412374D01*
X14638274Y10412374D01*
X14642287Y10416387D01*
X14642287Y10462412D01*
X14638274Y10466425D01*
G37*
G36*
X4938420Y14208810D02*
G01*
X4933391Y14203781D01*
X4933391Y14123822D01*
X4938420Y14118793D01*
X4961178Y14118793D01*
X4961178Y14155826D01*
X4994198Y14155826D01*
X4994198Y14118793D01*
X5018379Y14118793D01*
X5023408Y14123822D01*
X5023408Y14203781D01*
X5018379Y14208810D01*
G37*
G36*
X4938420Y14048790D02*
G01*
X4933391Y14043812D01*
X4933391Y13964818D01*
X4938420Y13959789D01*
X5018379Y13959789D01*
X5023408Y13964818D01*
X5023408Y14043812D01*
X5018379Y14048790D01*
X4994198Y14048790D01*
X4994198Y14010792D01*
X4961178Y14010792D01*
X4961178Y14048790D01*
G37*
G36*
X7110120Y14208810D02*
G01*
X7105091Y14203781D01*
X7105091Y14123822D01*
X7110120Y14118793D01*
X7132878Y14118793D01*
X7132878Y14155826D01*
X7165898Y14155826D01*
X7165898Y14118793D01*
X7190079Y14118793D01*
X7195108Y14123822D01*
X7195108Y14203781D01*
X7190079Y14208810D01*
G37*
G36*
X7110120Y14048790D02*
G01*
X7105091Y14043812D01*
X7105091Y13964818D01*
X7110120Y13959789D01*
X7190079Y13959789D01*
X7195108Y13964818D01*
X7195108Y14043812D01*
X7190079Y14048790D01*
X7165898Y14048790D01*
X7165898Y14010792D01*
X7132878Y14010792D01*
X7132878Y14048790D01*
G37*
G36*
X11491620Y14208810D02*
G01*
X11486591Y14203781D01*
X11486591Y14123822D01*
X11491620Y14118793D01*
X11514378Y14118793D01*
X11514378Y14155826D01*
X11547398Y14155826D01*
X11547398Y14118793D01*
X11571579Y14118793D01*
X11576608Y14123822D01*
X11576608Y14203781D01*
X11571579Y14208810D01*
G37*
G36*
X11491620Y14048790D02*
G01*
X11486591Y14043812D01*
X11486591Y13964818D01*
X11491620Y13959789D01*
X11571579Y13959789D01*
X11576608Y13964818D01*
X11576608Y14043812D01*
X11571579Y14048790D01*
X11547398Y14048790D01*
X11547398Y14010792D01*
X11514378Y14010792D01*
X11514378Y14048790D01*
G37*
G36*
X9383420Y14221510D02*
G01*
X9378391Y14216481D01*
X9378391Y14136522D01*
X9383420Y14131493D01*
X9406178Y14131493D01*
X9406178Y14168526D01*
X9439198Y14168526D01*
X9439198Y14131493D01*
X9463379Y14131493D01*
X9468408Y14136522D01*
X9468408Y14216481D01*
X9463379Y14221510D01*
G37*
G36*
X9383420Y14061490D02*
G01*
X9378391Y14056512D01*
X9378391Y13977518D01*
X9383420Y13972489D01*
X9463379Y13972489D01*
X9468408Y13977518D01*
X9468408Y14056512D01*
X9463379Y14061490D01*
X9439198Y14061490D01*
X9439198Y14023492D01*
X9406178Y14023492D01*
X9406178Y14061490D01*
G37*
G36*
X18717920Y14234210D02*
G01*
X18712891Y14229181D01*
X18712891Y14149222D01*
X18717920Y14144193D01*
X18740678Y14144193D01*
X18740678Y14181226D01*
X18773698Y14181226D01*
X18773698Y14144193D01*
X18797879Y14144193D01*
X18802908Y14149222D01*
X18802908Y14229181D01*
X18797879Y14234210D01*
G37*
G36*
X18717920Y14074190D02*
G01*
X18712891Y14069212D01*
X18712891Y13990218D01*
X18717920Y13985189D01*
X18797879Y13985189D01*
X18802908Y13990218D01*
X18802908Y14069212D01*
X18797879Y14074190D01*
X18773698Y14074190D01*
X18773698Y14036192D01*
X18740678Y14036192D01*
X18740678Y14074190D01*
G37*
G36*
X20813420Y14246910D02*
G01*
X20808391Y14241881D01*
X20808391Y14161922D01*
X20813420Y14156893D01*
X20836178Y14156893D01*
X20836178Y14193926D01*
X20869198Y14193926D01*
X20869198Y14156893D01*
X20893379Y14156893D01*
X20898408Y14161922D01*
X20898408Y14241881D01*
X20893379Y14246910D01*
G37*
G36*
X20813420Y14086890D02*
G01*
X20808391Y14081912D01*
X20808391Y14002918D01*
X20813420Y13997889D01*
X20893379Y13997889D01*
X20898408Y14002918D01*
X20898408Y14081912D01*
X20893379Y14086890D01*
X20869198Y14086890D01*
X20869198Y14048892D01*
X20836178Y14048892D01*
X20836178Y14086890D01*
G37*
G36*
X16114420Y14221510D02*
G01*
X16109391Y14216481D01*
X16109391Y14136522D01*
X16114420Y14131493D01*
X16137178Y14131493D01*
X16137178Y14168526D01*
X16170198Y14168526D01*
X16170198Y14131493D01*
X16194379Y14131493D01*
X16199408Y14136522D01*
X16199408Y14216481D01*
X16194379Y14221510D01*
G37*
G36*
X16114420Y14061490D02*
G01*
X16109391Y14056512D01*
X16109391Y13977518D01*
X16114420Y13972489D01*
X16194379Y13972489D01*
X16199408Y13977518D01*
X16199408Y14056512D01*
X16194379Y14061490D01*
X16170198Y14061490D01*
X16170198Y14023492D01*
X16137178Y14023492D01*
X16137178Y14061490D01*
G37*
G36*
X14044320Y14208810D02*
G01*
X14039291Y14203781D01*
X14039291Y14123822D01*
X14044320Y14118793D01*
X14067078Y14118793D01*
X14067078Y14155826D01*
X14100098Y14155826D01*
X14100098Y14118793D01*
X14124279Y14118793D01*
X14129308Y14123822D01*
X14129308Y14203781D01*
X14124279Y14208810D01*
G37*
G36*
X14044320Y14048790D02*
G01*
X14039291Y14043812D01*
X14039291Y13964818D01*
X14044320Y13959789D01*
X14124279Y13959789D01*
X14129308Y13964818D01*
X14129308Y14043812D01*
X14124279Y14048790D01*
X14100098Y14048790D01*
X14100098Y14010792D01*
X14067078Y14010792D01*
X14067078Y14048790D01*
G37*
D10*
X5219700Y11531092D02*
G01*
X5219700Y11384940D01*
X5346700Y11531092D02*
G01*
X5346700Y11384940D01*
X5473700Y11531092D02*
G01*
X5473700Y11384940D01*
X5600700Y11531092D02*
G01*
X5600700Y11384940D01*
X5219700Y12084659D02*
G01*
X5219700Y11938508D01*
X5346700Y12084659D02*
G01*
X5346700Y11938508D01*
X5473700Y12084659D02*
G01*
X5473700Y11938508D01*
X5600700Y12084659D02*
G01*
X5600700Y11938508D01*
X7467600Y11518392D02*
G01*
X7467600Y11372240D01*
X7594600Y11518392D02*
G01*
X7594600Y11372240D01*
X7721600Y11518392D02*
G01*
X7721600Y11372240D01*
X7848600Y11518392D02*
G01*
X7848600Y11372240D01*
X7467600Y12071959D02*
G01*
X7467600Y11925808D01*
X7594600Y12071959D02*
G01*
X7594600Y11925808D01*
X7721600Y12071959D02*
G01*
X7721600Y11925808D01*
X7848600Y12071959D02*
G01*
X7848600Y11925808D01*
X11798300Y11543792D02*
G01*
X11798300Y11397640D01*
X11925300Y11543792D02*
G01*
X11925300Y11397640D01*
X12052300Y11543792D02*
G01*
X12052300Y11397640D01*
X12179300Y11543792D02*
G01*
X12179300Y11397640D01*
X11798300Y12097359D02*
G01*
X11798300Y11951208D01*
X11925300Y12097359D02*
G01*
X11925300Y11951208D01*
X12052300Y12097359D02*
G01*
X12052300Y11951208D01*
X12179300Y12097359D02*
G01*
X12179300Y11951208D01*
X9753600Y11543792D02*
G01*
X9753600Y11397640D01*
X9880600Y11543792D02*
G01*
X9880600Y11397640D01*
X10007600Y11543792D02*
G01*
X10007600Y11397640D01*
X10134600Y11543792D02*
G01*
X10134600Y11397640D01*
X9753600Y12097359D02*
G01*
X9753600Y11951208D01*
X9880600Y12097359D02*
G01*
X9880600Y11951208D01*
X10007600Y12097359D02*
G01*
X10007600Y11951208D01*
X10134600Y12097359D02*
G01*
X10134600Y11951208D01*
X19024600Y11505692D02*
G01*
X19024600Y11359540D01*
X19151600Y11505692D02*
G01*
X19151600Y11359540D01*
X19278600Y11505692D02*
G01*
X19278600Y11359540D01*
X19405600Y11505692D02*
G01*
X19405600Y11359540D01*
X19024600Y12059259D02*
G01*
X19024600Y11913108D01*
X19151600Y12059259D02*
G01*
X19151600Y11913108D01*
X19278600Y12059259D02*
G01*
X19278600Y11913108D01*
X19405600Y12059259D02*
G01*
X19405600Y11913108D01*
X21145500Y11492992D02*
G01*
X21145500Y11346840D01*
X21272500Y11492992D02*
G01*
X21272500Y11346840D01*
X21399500Y11492992D02*
G01*
X21399500Y11346840D01*
X21526500Y11492992D02*
G01*
X21526500Y11346840D01*
X21145500Y12046559D02*
G01*
X21145500Y11900408D01*
X21272500Y12046559D02*
G01*
X21272500Y11900408D01*
X21399500Y12046559D02*
G01*
X21399500Y11900408D01*
X21526500Y12046559D02*
G01*
X21526500Y11900408D01*
X16421100Y11518392D02*
G01*
X16421100Y11372240D01*
X16548100Y11518392D02*
G01*
X16548100Y11372240D01*
X16675100Y11518392D02*
G01*
X16675100Y11372240D01*
X16802100Y11518392D02*
G01*
X16802100Y11372240D01*
X16421100Y12071959D02*
G01*
X16421100Y11925808D01*
X16548100Y12071959D02*
G01*
X16548100Y11925808D01*
X16675100Y12071959D02*
G01*
X16675100Y11925808D01*
X16802100Y12071959D02*
G01*
X16802100Y11925808D01*
X14312900Y11518392D02*
G01*
X14312900Y11372240D01*
X14439900Y11518392D02*
G01*
X14439900Y11372240D01*
X14566900Y11518392D02*
G01*
X14566900Y11372240D01*
X14693900Y11518392D02*
G01*
X14693900Y11372240D01*
X14312900Y12071959D02*
G01*
X14312900Y11925808D01*
X14439900Y12071959D02*
G01*
X14439900Y11925808D01*
X14566900Y12071959D02*
G01*
X14566900Y11925808D01*
X14693900Y12071959D02*
G01*
X14693900Y11925808D01*
D11*
G01*
X1944497Y10712450D03*
G01*
X1714500Y10712450D03*
G01*
X1484503Y10712450D03*
G36*
X1537500Y10264200D02*
G01*
X1891499Y10264200D01*
X1891499Y10017699D01*
X1537500Y10017699D01*
G37*
M02*
