G04 Layer: BottomLayer*
G04 EasyEDA v6.5.9, 2022-07-19 10:17:32*
G04 949b56ed96714d3c9a1e36b78244d617,84c7e2b185e6486294edc9ff802fc075,10*
G04 Gerber Generator version 0.2*
G04 Scale: 100 percent, Rotated: No, Reflected: No *
G04 Dimensions in millimeters *
G04 leading zeros omitted , absolute positions ,4 integer and 5 decimal *
%FSLAX45Y45*%
%MOMM*%

%ADD10C,3.0000*%
%ADD11C,2.0000*%
%ADD12C,0.2540*%
%ADD13C,0.5000*%
%ADD14C,1.4986*%
%ADD15C,2.6416*%
%ADD16C,2.8000*%
%ADD17C,2.4000*%
%ADD18C,1.8000*%
%ADD19C,1.7000*%
%ADD20R,1.7000X1.7000*%
%ADD21C,0.6100*%
%ADD22C,1.0000*%
%ADD23C,2.5000*%
%ADD24C,0.0114*%

%LPD*%
D10*
X24955500Y12573000D02*
G01*
X23559198Y13152297D01*
X22567206Y15003604D02*
G01*
X22567206Y14663595D01*
X2983801Y14990902D02*
G01*
X2983801Y14650897D01*
X3975798Y14990902D02*
G01*
X3975798Y14650897D01*
X2983801Y13568502D02*
G01*
X2983801Y13228497D01*
X3975798Y13568502D02*
G01*
X3975798Y13228497D01*
D11*
X7353300Y15772892D02*
G01*
X7251700Y15874492D01*
X7251700Y15950945D01*
X7251700Y15950945D02*
G01*
X7454900Y15950945D01*
X3975798Y14650897D02*
G01*
X3993400Y14668500D01*
X5918200Y14668500D01*
X6223000Y14986000D01*
X6794500Y15557500D01*
X7137908Y15557500D01*
X7353300Y15772892D01*
X9626600Y15772892D02*
G01*
X9525000Y15874492D01*
X9525000Y15950945D01*
X9525000Y15950945D02*
G01*
X9728200Y15950945D01*
X11734800Y15772892D02*
G01*
X11633200Y15874492D01*
X11633200Y15950945D01*
X11633200Y15950945D02*
G01*
X11836400Y15950945D01*
X3975861Y14990826D02*
G01*
X3975798Y14990902D01*
X4660900Y15532100D01*
X4864354Y15532100D01*
X5181600Y15772892D01*
X5080000Y15950945D01*
X5283200Y15950945D01*
X21056600Y15772892D02*
G01*
X20955000Y15874492D01*
X20955000Y15950945D01*
X20955000Y15950945D02*
G01*
X21158200Y15950945D01*
X21056600Y15772892D02*
G01*
X21056600Y15532100D01*
X21610497Y14978202D01*
X22567201Y14978202D01*
X18961100Y15760192D02*
G01*
X18859500Y15861792D01*
X18859500Y15938245D01*
X18859500Y15938245D02*
G01*
X19062700Y15938245D01*
X16357600Y15760192D02*
G01*
X16256000Y15861792D01*
X16256000Y15938245D01*
X16256000Y15938245D02*
G01*
X16459200Y15938245D01*
X14287500Y15760192D02*
G01*
X14185900Y15861792D01*
X14185900Y15938245D01*
X14185900Y15938245D02*
G01*
X14389100Y15938245D01*
D10*
X23559198Y13492302D02*
G01*
X23559198Y13152297D01*
X1612900Y13373100D02*
G01*
X2983801Y13387590D01*
X2983801Y13412990D01*
X24930100Y14846300D02*
G01*
X24172430Y14837930D01*
X23622698Y14837930D01*
D11*
X9626600Y15772892D02*
G01*
X9398508Y15544800D01*
X9055100Y15544800D01*
X7078799Y13568504D01*
X3975793Y13568504D01*
D12*
X5549900Y12496800D02*
G01*
X5346700Y12293600D01*
X5702300Y15459504D02*
G01*
X5930900Y15688104D01*
X5930900Y15938500D01*
X5753100Y16116300D01*
X5600700Y16116300D01*
X5486400Y16002000D01*
X5486400Y15950945D01*
D11*
X11734800Y15772892D02*
G01*
X11519408Y15557500D01*
X11214100Y15557500D01*
X8885097Y13228497D01*
X3975798Y13228497D01*
D13*
X7048500Y11112500D02*
G01*
X9398000Y11112500D01*
D12*
X9880600Y12230100D02*
G01*
X9956800Y12382500D01*
X10020300Y12522200D01*
X7594600Y12280900D02*
G01*
X7772400Y12458700D01*
X7772400Y12496800D01*
X7861300Y15468600D02*
G01*
X8115300Y15709900D01*
X8115300Y15709900D01*
X8115300Y15925800D01*
X7962900Y16103600D01*
X7797800Y16103600D01*
X7658100Y15963900D01*
X7658100Y15950945D01*
X11925300Y12230100D02*
G01*
X12103100Y12522200D01*
X12103100Y12522200D01*
X10147300Y15468600D02*
G01*
X10388600Y15709900D01*
X10388600Y15925800D01*
X10223500Y16090900D01*
X10058400Y16090900D01*
X9931400Y15963900D01*
X9931400Y15950945D01*
X12255500Y15468600D02*
G01*
X12509500Y15722600D01*
X12509500Y15938500D01*
X12331700Y16116300D01*
X12166600Y16116300D01*
X12039600Y15989300D01*
X12039600Y15950945D01*
X14439900Y12230100D02*
G01*
X14516100Y12407900D01*
X14566900Y12522200D01*
X14808200Y15468600D02*
G01*
X15074900Y15735300D01*
X15074900Y15925800D01*
X14897100Y16103600D01*
X14732000Y16103600D01*
X14592300Y15963900D01*
X14592300Y15938245D01*
X16878300Y15468600D02*
G01*
X17145000Y15735300D01*
X17145000Y15913100D01*
X16954500Y16103600D01*
X16776700Y16103600D01*
X16662400Y15989300D01*
X16662400Y15938245D01*
X16548100Y12230100D02*
G01*
X16751300Y12509500D01*
X16751300Y12509500D01*
D11*
X14287500Y15760192D02*
G01*
X14287500Y15455900D01*
X16591102Y13152297D01*
X22567201Y13152297D01*
D13*
X16040100Y11125200D02*
G01*
X18669000Y11125200D01*
D12*
X19469100Y15468600D02*
G01*
X19723100Y15722600D01*
X19723100Y15913100D01*
X19532600Y16103600D01*
X19380200Y16103600D01*
X19265900Y15989300D01*
X19265900Y15938245D01*
D11*
X18961100Y15760192D02*
G01*
X18961100Y15494000D01*
X19816902Y14638197D01*
X22567201Y14638197D01*
D10*
X22567201Y13492302D02*
G01*
X22567201Y13152297D01*
D12*
X19151600Y12230100D02*
G01*
X19354800Y12496800D01*
X19354800Y12496800D01*
X21424900Y12509500D02*
G01*
X21272500Y12217400D01*
X21272500Y12217400D01*
X21577300Y15468600D02*
G01*
X21844000Y15735300D01*
X21844000Y15913100D01*
X21653500Y16103600D01*
X21463000Y16103600D01*
X21361400Y16002000D01*
X21361400Y15950945D01*
D13*
X18669000Y11125200D02*
G01*
X20777200Y11125200D01*
X13068300Y6883400D02*
G01*
X13347700Y6604000D01*
X15240000Y6604000D01*
D10*
X1625600Y15570200D02*
G01*
X2983738Y14805660D01*
D13*
X11430000Y11112500D02*
G01*
X13957300Y11112500D01*
X9398000Y11112500D02*
G01*
X11430000Y11112500D01*
X13957300Y11112500D02*
G01*
X13957300Y11112500D01*
X16040100Y11125200D01*
X4673600Y11125200D02*
G01*
X4673600Y11125200D01*
X7048500Y11112500D01*
X15240000Y6604000D02*
G01*
X16167100Y7531100D01*
X16256000Y7531100D01*
D11*
X3975798Y14650897D02*
G01*
X3421900Y14097000D01*
X1905000Y14097000D01*
X1193800Y13385800D01*
X1193800Y12077700D01*
X1473200Y11798300D01*
X1473200Y11531600D01*
D13*
X5092700Y6604000D02*
G01*
X15240000Y6604000D01*
D11*
X16357600Y15760192D02*
G01*
X16357600Y15443200D01*
X18308497Y13492302D01*
X22567201Y13492302D01*
D10*
X23558500Y14973300D02*
G01*
X23558500Y14643100D01*
D14*
G01*
X5791200Y15772892D03*
G36*
X5005070Y16025876D02*
G01*
X5154929Y16025876D01*
X5154929Y15876016D01*
X5005070Y15876016D01*
G37*
G01*
X5486400Y15950945D03*
G01*
X5283200Y15950945D03*
G01*
X5384800Y15772892D03*
G01*
X5181600Y15772892D03*
G01*
X5689600Y15950945D03*
D15*
G01*
X4622596Y15848939D03*
G01*
X6248603Y15848939D03*
D14*
G01*
X5588000Y15772892D03*
G01*
X5892545Y15291054D03*
G01*
X6121654Y15291054D03*
G01*
X4749545Y15291054D03*
G01*
X4978654Y15291054D03*
G01*
X7962900Y15772892D03*
G36*
X7176770Y16025876D02*
G01*
X7326629Y16025876D01*
X7326629Y15876016D01*
X7176770Y15876016D01*
G37*
G01*
X7658100Y15950945D03*
G01*
X7454900Y15950945D03*
G01*
X7556500Y15772892D03*
G01*
X7353300Y15772892D03*
G01*
X7861300Y15950945D03*
D15*
G01*
X6794296Y15848939D03*
G01*
X8420303Y15848939D03*
D14*
G01*
X7759700Y15772892D03*
G01*
X8064245Y15291054D03*
G01*
X8293354Y15291054D03*
G01*
X6921245Y15291054D03*
G01*
X7150354Y15291054D03*
G01*
X10236200Y15772892D03*
G36*
X9450070Y16025876D02*
G01*
X9599929Y16025876D01*
X9599929Y15876016D01*
X9450070Y15876016D01*
G37*
G01*
X9931400Y15950945D03*
G01*
X9728200Y15950945D03*
G01*
X9829800Y15772892D03*
G01*
X9626600Y15772892D03*
G01*
X10134600Y15950945D03*
D15*
G01*
X9067596Y15848939D03*
G01*
X10693603Y15848939D03*
D14*
G01*
X10033000Y15772892D03*
G01*
X10337545Y15291054D03*
G01*
X10566654Y15291054D03*
G01*
X9194545Y15291054D03*
G01*
X9423654Y15291054D03*
G01*
X12344400Y15772892D03*
G36*
X11558270Y16025876D02*
G01*
X11708129Y16025876D01*
X11708129Y15876016D01*
X11558270Y15876016D01*
G37*
G01*
X12039600Y15950945D03*
G01*
X11836400Y15950945D03*
G01*
X11938000Y15772892D03*
G01*
X11734800Y15772892D03*
G01*
X12242800Y15950945D03*
D15*
G01*
X11175796Y15848939D03*
G01*
X12801803Y15848939D03*
D14*
G01*
X12141200Y15772892D03*
G01*
X12445745Y15291054D03*
G01*
X12674854Y15291054D03*
G01*
X11302745Y15291054D03*
G01*
X11531854Y15291054D03*
G01*
X14897100Y15760192D03*
G36*
X14110970Y16013176D02*
G01*
X14260829Y16013176D01*
X14260829Y15863316D01*
X14110970Y15863316D01*
G37*
G01*
X14592300Y15938245D03*
G01*
X14389100Y15938245D03*
G01*
X14490700Y15760192D03*
G01*
X14287500Y15760192D03*
G01*
X14795500Y15938245D03*
D15*
G01*
X13728496Y15836239D03*
G01*
X15354503Y15836239D03*
D14*
G01*
X14693900Y15760192D03*
G01*
X14998445Y15278354D03*
G01*
X15227554Y15278354D03*
G01*
X13855445Y15278354D03*
G01*
X14084554Y15278354D03*
G01*
X16967200Y15760192D03*
G36*
X16181070Y16013176D02*
G01*
X16330929Y16013176D01*
X16330929Y15863316D01*
X16181070Y15863316D01*
G37*
G01*
X16662400Y15938245D03*
G01*
X16459200Y15938245D03*
G01*
X16560800Y15760192D03*
G01*
X16357600Y15760192D03*
G01*
X16865600Y15938245D03*
D15*
G01*
X15798596Y15836239D03*
G01*
X17424603Y15836239D03*
D14*
G01*
X16764000Y15760192D03*
G01*
X17068545Y15278354D03*
G01*
X17297654Y15278354D03*
G01*
X15925545Y15278354D03*
G01*
X16154654Y15278354D03*
G01*
X19570700Y15760192D03*
G36*
X18784570Y16013176D02*
G01*
X18934429Y16013176D01*
X18934429Y15863316D01*
X18784570Y15863316D01*
G37*
G01*
X19265900Y15938245D03*
G01*
X19062700Y15938245D03*
G01*
X19164300Y15760192D03*
G01*
X18961100Y15760192D03*
G01*
X19469100Y15938245D03*
D15*
G01*
X18402096Y15836239D03*
G01*
X20028103Y15836239D03*
D14*
G01*
X19367500Y15760192D03*
G01*
X19672045Y15278354D03*
G01*
X19901154Y15278354D03*
G01*
X18529045Y15278354D03*
G01*
X18758154Y15278354D03*
G01*
X21666200Y15772892D03*
G36*
X20880070Y16025876D02*
G01*
X21029929Y16025876D01*
X21029929Y15876016D01*
X20880070Y15876016D01*
G37*
G01*
X21361400Y15950945D03*
G01*
X21158200Y15950945D03*
G01*
X21259800Y15772892D03*
G01*
X21056600Y15772892D03*
G01*
X21564600Y15950945D03*
D15*
G01*
X20497596Y15848939D03*
G01*
X22123603Y15848939D03*
D14*
G01*
X21463000Y15772892D03*
G01*
X21767545Y15291054D03*
G01*
X21996654Y15291054D03*
G01*
X20624545Y15291054D03*
G01*
X20853654Y15291054D03*
D16*
G01*
X1625600Y14808200D03*
G01*
X1625600Y15570200D03*
G01*
X1612900Y12611100D03*
G01*
X1612900Y13373100D03*
G01*
X24930100Y13335000D03*
G01*
X24930100Y12573000D03*
G01*
X24930100Y15608300D03*
G01*
X24930100Y14846300D03*
D17*
G01*
X2983814Y14990902D03*
G01*
X2983814Y14650897D03*
G01*
X3975811Y14650897D03*
G01*
X3975811Y14990902D03*
G01*
X2983814Y13568502D03*
G01*
X2983814Y13228497D03*
G01*
X3975811Y13228497D03*
G01*
X3975811Y13568502D03*
G01*
X23559211Y13152297D03*
G01*
X23559211Y13492302D03*
G01*
X22567214Y13492302D03*
G01*
X22567214Y13152297D03*
G01*
X23559211Y14638197D03*
G01*
X23559211Y14978202D03*
G01*
X22567214Y14978202D03*
G01*
X22567214Y14638197D03*
G01*
X2958414Y10126802D03*
G01*
X2958414Y9786797D03*
G01*
X3950411Y9786797D03*
G01*
X3950411Y10126802D03*
G36*
X12457600Y8611699D02*
G01*
X12637599Y8611699D01*
X12637599Y8431700D01*
X12457600Y8431700D01*
G37*
D18*
G01*
X12801600Y8521700D03*
G01*
X13055600Y8521700D03*
G01*
X13309600Y8521700D03*
G01*
X13563600Y8521700D03*
G01*
X13817600Y8521700D03*
G01*
X14071600Y8521700D03*
G01*
X14325600Y8521700D03*
G36*
X12983298Y6968401D02*
G01*
X13153301Y6968401D01*
X13153301Y6798398D01*
X12983298Y6798398D01*
G37*
D19*
G01*
X13322300Y6883400D03*
G01*
X13576300Y6883400D03*
G01*
X13830300Y6883400D03*
D20*
G01*
X16256000Y7531100D03*
D19*
G01*
X16256000Y7785100D03*
G01*
X16256000Y8039100D03*
G01*
X16256000Y8293100D03*
D21*
G01*
X5549900Y12496800D03*
G01*
X5346700Y12293600D03*
D14*
G01*
X15240000Y6438900D03*
D21*
G01*
X5702300Y15459506D03*
D22*
G01*
X4673600Y11125200D03*
G01*
X7048500Y11112500D03*
D21*
G01*
X7797800Y12496800D03*
G01*
X7594600Y12280900D03*
D22*
G01*
X9398000Y11112500D03*
G01*
X11430000Y11112500D03*
D21*
G01*
X10020300Y12522200D03*
G01*
X9880600Y12230100D03*
G01*
X7861300Y15468600D03*
G01*
X12103100Y12522200D03*
G01*
X11925300Y12230100D03*
G01*
X10147300Y15468600D03*
G01*
X12255500Y15468600D03*
D22*
G01*
X13957300Y11112500D03*
D21*
G01*
X14439900Y12230100D03*
G01*
X14566900Y12522200D03*
G01*
X14808200Y15468600D03*
G01*
X16878300Y15468600D03*
G01*
X16751300Y12509500D03*
G01*
X16548100Y12230100D03*
D22*
G01*
X16040100Y11125200D03*
G01*
X18669000Y11125200D03*
D21*
G01*
X19469100Y15468600D03*
G01*
X19354800Y12496800D03*
G01*
X19151600Y12230100D03*
G01*
X21272500Y12217400D03*
G01*
X21424900Y12509500D03*
D22*
G01*
X20777200Y11125200D03*
D21*
G01*
X21577300Y15468600D03*
D22*
G01*
X15240000Y6604000D03*
G01*
X5092700Y6604000D03*
D23*
G01*
X1473200Y11531600D03*
M02*
