G04 Layer: BottomSilkscreenLayer*
G04 EasyEDA v6.5.9, 2022-07-19 10:17:32*
G04 949b56ed96714d3c9a1e36b78244d617,84c7e2b185e6486294edc9ff802fc075,10*
G04 Gerber Generator version 0.2*
G04 Scale: 100 percent, Rotated: No, Reflected: No *
G04 Dimensions in millimeters *
G04 leading zeros omitted , absolute positions ,4 integer and 5 decimal *
%FSLAX45Y45*%
%MOMM*%

%ADD10C,0.2032*%
%ADD11C,1.0000*%

%LPD*%
D10*
X25565100Y16297102D02*
G01*
X25546626Y16306337D01*
X25518917Y16334046D01*
X25518917Y16140084D01*
X25448722Y16287864D02*
G01*
X25448722Y16297102D01*
X25439484Y16315575D01*
X25430248Y16324811D01*
X25411775Y16334046D01*
X25374831Y16334046D01*
X25356357Y16324811D01*
X25347122Y16315575D01*
X25337884Y16297102D01*
X25337884Y16278628D01*
X25347122Y16260155D01*
X25365595Y16232446D01*
X25457957Y16140084D01*
X25328648Y16140084D01*
X25267688Y16334046D02*
G01*
X25193797Y16140084D01*
X25119906Y16334046D02*
G01*
X25193797Y16140084D01*
X24916706Y16334046D02*
G01*
X24916706Y16140084D01*
X24916706Y16334046D02*
G01*
X24833579Y16334046D01*
X24805871Y16324811D01*
X24796635Y16315575D01*
X24787397Y16297102D01*
X24787397Y16269393D01*
X24796635Y16250920D01*
X24805871Y16241684D01*
X24833579Y16232446D01*
X24916706Y16232446D01*
X24680255Y16269393D02*
G01*
X24698728Y16260155D01*
X24717202Y16241684D01*
X24726437Y16213975D01*
X24726437Y16195502D01*
X24717202Y16167793D01*
X24698728Y16149320D01*
X24680255Y16140084D01*
X24652546Y16140084D01*
X24634075Y16149320D01*
X24615602Y16167793D01*
X24606364Y16195502D01*
X24606364Y16213975D01*
X24615602Y16241684D01*
X24634075Y16260155D01*
X24652546Y16269393D01*
X24680255Y16269393D01*
X24545404Y16269393D02*
G01*
X24508459Y16140084D01*
X24471515Y16269393D02*
G01*
X24508459Y16140084D01*
X24471515Y16269393D02*
G01*
X24434568Y16140084D01*
X24397624Y16269393D02*
G01*
X24434568Y16140084D01*
X24336664Y16213975D02*
G01*
X24225826Y16213975D01*
X24225826Y16232446D01*
X24235064Y16250920D01*
X24244300Y16260155D01*
X24262773Y16269393D01*
X24290482Y16269393D01*
X24308955Y16260155D01*
X24327426Y16241684D01*
X24336664Y16213975D01*
X24336664Y16195502D01*
X24327426Y16167793D01*
X24308955Y16149320D01*
X24290482Y16140084D01*
X24262773Y16140084D01*
X24244300Y16149320D01*
X24225826Y16167793D01*
X24164866Y16269393D02*
G01*
X24164866Y16140084D01*
X24164866Y16213975D02*
G01*
X24155631Y16241684D01*
X24137157Y16260155D01*
X24118684Y16269393D01*
X24090975Y16269393D01*
X23887775Y16334046D02*
G01*
X23887775Y16140084D01*
X23887775Y16334046D02*
G01*
X23823122Y16334046D01*
X23795413Y16324811D01*
X23776940Y16306337D01*
X23767704Y16287864D01*
X23758466Y16260155D01*
X23758466Y16213975D01*
X23767704Y16186264D01*
X23776940Y16167793D01*
X23795413Y16149320D01*
X23823122Y16140084D01*
X23887775Y16140084D01*
X23697506Y16334046D02*
G01*
X23688271Y16324811D01*
X23679035Y16334046D01*
X23688271Y16343284D01*
X23697506Y16334046D01*
X23688271Y16269393D02*
G01*
X23688271Y16140084D01*
X23516475Y16241684D02*
G01*
X23525711Y16260155D01*
X23553420Y16269393D01*
X23581128Y16269393D01*
X23608837Y16260155D01*
X23618075Y16241684D01*
X23608837Y16223211D01*
X23590364Y16213975D01*
X23544184Y16204737D01*
X23525711Y16195502D01*
X23516475Y16177028D01*
X23516475Y16167793D01*
X23525711Y16149320D01*
X23553420Y16140084D01*
X23581128Y16140084D01*
X23608837Y16149320D01*
X23618075Y16167793D01*
X23427804Y16334046D02*
G01*
X23427804Y16177028D01*
X23418568Y16149320D01*
X23400095Y16140084D01*
X23381624Y16140084D01*
X23455515Y16269393D02*
G01*
X23390859Y16269393D01*
X23320664Y16269393D02*
G01*
X23320664Y16140084D01*
X23320664Y16213975D02*
G01*
X23311426Y16241684D01*
X23292955Y16260155D01*
X23274482Y16269393D01*
X23246773Y16269393D01*
X23185813Y16334046D02*
G01*
X23176575Y16324811D01*
X23167340Y16334046D01*
X23176575Y16343284D01*
X23185813Y16334046D01*
X23176575Y16269393D02*
G01*
X23176575Y16140084D01*
X23106379Y16334046D02*
G01*
X23106379Y16140084D01*
X23106379Y16241684D02*
G01*
X23087906Y16260155D01*
X23069435Y16269393D01*
X23041724Y16269393D01*
X23023253Y16260155D01*
X23004779Y16241684D01*
X22995544Y16213975D01*
X22995544Y16195502D01*
X23004779Y16167793D01*
X23023253Y16149320D01*
X23041724Y16140084D01*
X23069435Y16140084D01*
X23087906Y16149320D01*
X23106379Y16167793D01*
X22934584Y16269393D02*
G01*
X22934584Y16177028D01*
X22925346Y16149320D01*
X22906875Y16140084D01*
X22879164Y16140084D01*
X22860693Y16149320D01*
X22832984Y16177028D01*
X22832984Y16269393D02*
G01*
X22832984Y16140084D01*
X22744315Y16334046D02*
G01*
X22744315Y16177028D01*
X22735077Y16149320D01*
X22716604Y16140084D01*
X22698133Y16140084D01*
X22772024Y16269393D02*
G01*
X22707368Y16269393D01*
X22637173Y16334046D02*
G01*
X22627935Y16324811D01*
X22618700Y16334046D01*
X22627935Y16343284D01*
X22637173Y16334046D01*
X22627935Y16269393D02*
G01*
X22627935Y16140084D01*
X22511557Y16269393D02*
G01*
X22530031Y16260155D01*
X22548504Y16241684D01*
X22557740Y16213975D01*
X22557740Y16195502D01*
X22548504Y16167793D01*
X22530031Y16149320D01*
X22511557Y16140084D01*
X22483848Y16140084D01*
X22465375Y16149320D01*
X22446904Y16167793D01*
X22437666Y16195502D01*
X22437666Y16213975D01*
X22446904Y16241684D01*
X22465375Y16260155D01*
X22483848Y16269393D01*
X22511557Y16269393D01*
X22376706Y16269393D02*
G01*
X22376706Y16140084D01*
X22376706Y16232446D02*
G01*
X22348997Y16260155D01*
X22330524Y16269393D01*
X22302815Y16269393D01*
X22284344Y16260155D01*
X22275106Y16232446D01*
X22275106Y16140084D01*
D11*
X1035050Y16002000D02*
G01*
X25533350Y16002000D01*
X25533350Y12141200D01*
X1035050Y12141200D01*
X1035050Y16002000D01*
M02*
